<?xml version="1.0" encoding="UTF-8" standalone="no"?>
<!-- Created with Inkscape (http://www.inkscape.org/) -->

<svg
   width="210mm"
   height="297mm"
   viewBox="0 0 210 297"
   version="1.1"
   id="svg5"
   inkscape:version="1.1.1 (3bf5ae0d25, 2021-09-20)"
   sodipodi:docname="Nike_log.svg"
   xmlns:inkscape="http://www.inkscape.org/namespaces/inkscape"
   xmlns:sodipodi="http://sodipodi.sourceforge.net/DTD/sodipodi-0.dtd"
   xmlns="http://www.w3.org/2000/svg"
   xmlns:svg="http://www.w3.org/2000/svg">
  <sodipodi:namedview
     id="namedview7"
     pagecolor="#ffffff"
     bordercolor="#666666"
     borderopacity="1.0"
     inkscape:pageshadow="2"
     inkscape:pageopacity="0.0"
     inkscape:pagecheckerboard="0"
     inkscape:document-units="mm"
     showgrid="false"
     inkscape:zoom="1.0998546"
     inkscape:cx="-421.41934"
     inkscape:cy="847.83934"
     inkscape:window-width="3440"
     inkscape:window-height="1417"
     inkscape:window-x="-8"
     inkscape:window-y="-8"
     inkscape:window-maximized="1"
     inkscape:current-layer="layer2" />
  <defs
     id="defs2" />
  <g
     inkscape:groupmode="layer"
     id="layer2"
     inkscape:label="Основа"
     style="display:inline">
    <path
       style="fill:#000000;fill-opacity:1;stroke:#000300;stroke-width:0.264583px;stroke-linecap:butt;stroke-linejoin:miter;stroke-opacity:1"
       d="m 54.641861,147.47687 c 0.03681,-0.0314 -1.08848,2.28204 -2.617312,4.96963 -3.356953,5.90134 -4.842826,15.22541 4.254556,18.54712 1.893088,0.69122 7.804536,2.03327 12.880952,0.99717 30.799246,-6.28614 107.785933,-24.33385 107.785933,-24.05676 0,0 -53.38019,19.33016 -79.717123,29.11683 -14.794565,5.49758 -36.237474,14.54472 -46.967159,13.33452 -2.212491,-0.24955 -4.405699,-0.53136 -6.462402,-1.0468 -4.338756,-1.08735 -8.994858,-4.2874 -10.083998,-9.6263 -1.206779,-5.91556 3.705946,-13.65694 7.573329,-18.56911 4.328851,-5.4983 9.479429,-10.3586 13.353224,-13.6663 z"
       id="path937"
       sodipodi:nodetypes="sssscssssss" />
  </g>
</svg>
